<mxfile host="app.diagrams.net" agent="Mozilla/5.0 (Windows NT 10.0; Win64; x64) AppleWebKit/537.36 (KHTML, like Gecko) Chrome/138.0.0.0 Safari/537.36" version="28.0.6">
  <diagram name="Page-1" id="4HiVwW96QQQ4JnfZYF5C">
    <mxGraphModel dx="642" dy="598" grid="1" gridSize="1" guides="1" tooltips="1" connect="1" arrows="1" fold="1" page="1" pageScale="1" pageWidth="1169" pageHeight="827" math="1" shadow="0">
      <root>
        <mxCell id="0" />
        <mxCell id="1" parent="0" />
        <mxCell id="BzCtqKmt7wued1GKm6yU-2" value="" style="rounded=1;whiteSpace=wrap;html=1;fontSize=13;fontFamily=Times New Roman;fontStyle=1;absoluteArcSize=1;container=0;" vertex="1" parent="1">
          <mxGeometry x="476" y="384" width="120" height="60" as="geometry" />
        </mxCell>
        <mxCell id="BzCtqKmt7wued1GKm6yU-9" value="" style="verticalLabelPosition=bottom;verticalAlign=top;html=1;shape=mxgraph.basic.rect;fillColor2=none;strokeWidth=1;size=20;indent=5;strokeColor=default;align=center;fontFamily=Times New Roman;fontSize=12;fontColor=default;fillColor=#dae8fc;container=0;" vertex="1" parent="1">
          <mxGeometry x="536" y="424" width="30" height="10" as="geometry" />
        </mxCell>
        <mxCell id="BzCtqKmt7wued1GKm6yU-8" value="" style="verticalLabelPosition=bottom;verticalAlign=top;html=1;shape=mxgraph.basic.rect;fillColor2=none;strokeWidth=1;size=20;indent=5;strokeColor=default;fillColor=#dae8fc;fontFamily=Times New Roman;container=0;" vertex="1" parent="1">
          <mxGeometry x="506" y="414" width="30" height="10" as="geometry" />
        </mxCell>
        <mxCell id="LOqkfIYxf2SJnOIHWHjF-9" value="Detector 1" style="rounded=0;orthogonalLoop=1;jettySize=auto;html=1;exitX=0.5;exitY=1;exitDx=0;exitDy=0;shadow=0;flowAnimation=0;endArrow=block;endFill=1;entryX=0.5;entryY=0;entryDx=0;entryDy=0;edgeStyle=orthogonalEdgeStyle;curved=0;fontFamily=Times New Roman;" parent="1" source="LOqkfIYxf2SJnOIHWHjF-1" target="LOqkfIYxf2SJnOIHWHjF-4" edge="1">
          <mxGeometry relative="1" as="geometry" />
        </mxCell>
        <mxCell id="LOqkfIYxf2SJnOIHWHjF-15" value="Detector n" style="edgeStyle=orthogonalEdgeStyle;rounded=0;orthogonalLoop=1;jettySize=auto;html=1;exitX=0.5;exitY=1;exitDx=0;exitDy=0;curved=0;shadow=0;strokeColor=default;align=center;verticalAlign=middle;fontFamily=Times New Roman;fontSize=11;fontColor=default;labelBackgroundColor=default;endArrow=block;endFill=1;flowAnimation=0;" parent="1" source="LOqkfIYxf2SJnOIHWHjF-1" target="LOqkfIYxf2SJnOIHWHjF-12" edge="1">
          <mxGeometry relative="1" as="geometry">
            <mxPoint x="560" y="270" as="targetPoint" />
          </mxGeometry>
        </mxCell>
        <mxCell id="BzCtqKmt7wued1GKm6yU-43" style="edgeStyle=orthogonalEdgeStyle;rounded=1;orthogonalLoop=1;jettySize=auto;html=1;exitX=0.5;exitY=1;exitDx=0;exitDy=0;shadow=0;strokeColor=default;align=center;verticalAlign=middle;fontFamily=Times New Roman;fontSize=11;fontColor=default;labelBackgroundColor=default;endArrow=block;endFill=1;flowAnimation=0;curved=0;" edge="1" parent="1" source="LOqkfIYxf2SJnOIHWHjF-1">
          <mxGeometry relative="1" as="geometry">
            <mxPoint x="530" y="260" as="targetPoint" />
          </mxGeometry>
        </mxCell>
        <mxCell id="LOqkfIYxf2SJnOIHWHjF-1" value="" style="rounded=1;whiteSpace=wrap;html=1;fillColor=#e1d5e7;strokeColor=default;fontSize=13;fontFamily=Times New Roman;fontStyle=1" parent="1" vertex="1">
          <mxGeometry x="470" y="130" width="120" height="60" as="geometry" />
        </mxCell>
        <mxCell id="LOqkfIYxf2SJnOIHWHjF-3" value="&lt;font style=&quot;font-size: 13px; font-weight: 700;&quot;&gt;Root / Initial&lt;/font&gt;&lt;div style=&quot;font-size: 13px; font-weight: 700;&quot;&gt;&lt;font style=&quot;font-weight: normal; font-size: 12px;&quot;&gt;(all constraints open)&lt;/font&gt;&lt;/div&gt;" style="text;html=1;align=center;verticalAlign=middle;whiteSpace=wrap;rounded=0;fontFamily=Times New Roman;" parent="1" vertex="1">
          <mxGeometry x="475" y="100" width="110" height="20" as="geometry" />
        </mxCell>
        <mxCell id="LOqkfIYxf2SJnOIHWHjF-16" value="" style="group;fontFamily=Times New Roman;" parent="1" vertex="1" connectable="0">
          <mxGeometry x="585" y="247" width="120" height="72" as="geometry" />
        </mxCell>
        <mxCell id="LOqkfIYxf2SJnOIHWHjF-11" value="" style="rounded=1;whiteSpace=wrap;html=1;fillColor=#e1d5e7;strokeColor=default;fontSize=13;fontFamily=Times New Roman;fontStyle=1;absoluteArcSize=1;container=0;" parent="LOqkfIYxf2SJnOIHWHjF-16" vertex="1">
          <mxGeometry y="10" width="120" height="60" as="geometry" />
        </mxCell>
        <mxCell id="LOqkfIYxf2SJnOIHWHjF-12" value="" style="verticalLabelPosition=bottom;verticalAlign=top;html=1;shape=mxgraph.basic.rect;fillColor2=none;strokeWidth=1;size=10;indent=0;fillColor=#f8cecc;strokeColor=default;right=1;bottom=1;topLeftStyle=rounded;topRightStyle=rounded;container=0;absoluteCornerSize=1;fontFamily=Times New Roman;" parent="LOqkfIYxf2SJnOIHWHjF-16" vertex="1">
          <mxGeometry y="10" width="120" height="40" as="geometry" />
        </mxCell>
        <mxCell id="LOqkfIYxf2SJnOIHWHjF-13" value="Master" style="text;html=1;align=center;verticalAlign=middle;whiteSpace=wrap;rounded=0;fontFamily=Times New Roman;container=0;fontSize=11;" parent="LOqkfIYxf2SJnOIHWHjF-16" vertex="1">
          <mxGeometry x="30" y="15" width="60" height="30" as="geometry" />
        </mxCell>
        <mxCell id="LOqkfIYxf2SJnOIHWHjF-14" value="Open" style="text;html=1;align=center;verticalAlign=middle;whiteSpace=wrap;rounded=0;container=0;fontSize=11;fontFamily=Times New Roman;" parent="LOqkfIYxf2SJnOIHWHjF-16" vertex="1">
          <mxGeometry x="30" y="45" width="60" height="30" as="geometry" />
        </mxCell>
        <mxCell id="LOqkfIYxf2SJnOIHWHjF-19" value="Open" style="text;html=1;align=center;verticalAlign=middle;whiteSpace=wrap;rounded=0;container=0;fontSize=11;fontFamily=Times New Roman;" parent="1" vertex="1">
          <mxGeometry x="500" y="145" width="60" height="30" as="geometry" />
        </mxCell>
        <mxCell id="BzCtqKmt7wued1GKm6yU-25" value="Detector k" style="edgeStyle=orthogonalEdgeStyle;rounded=0;orthogonalLoop=1;jettySize=auto;html=1;exitX=0.5;exitY=1;exitDx=0;exitDy=0;shadow=0;strokeColor=default;align=center;verticalAlign=middle;fontFamily=Times New Roman;fontSize=11;fontColor=default;labelBackgroundColor=default;endArrow=block;endFill=1;flowAnimation=0;curved=0;" edge="1" parent="1" source="LOqkfIYxf2SJnOIHWHjF-4" target="BzCtqKmt7wued1GKm6yU-2">
          <mxGeometry relative="1" as="geometry" />
        </mxCell>
        <mxCell id="BzCtqKmt7wued1GKm6yU-27" value="$$\cdots$$" style="text;html=1;align=center;verticalAlign=middle;whiteSpace=wrap;rounded=0;fontFamily=Times New Roman;" vertex="1" parent="1">
          <mxGeometry x="268" y="384" width="60" height="32" as="geometry" />
        </mxCell>
        <mxCell id="BzCtqKmt7wued1GKm6yU-29" value="" style="group;fontFamily=Times New Roman;" vertex="1" connectable="0" parent="1">
          <mxGeometry x="350" y="252" width="120" height="64" as="geometry" />
        </mxCell>
        <mxCell id="LOqkfIYxf2SJnOIHWHjF-4" value="" style="rounded=1;whiteSpace=wrap;html=1;fillColor=#e1d5e7;strokeColor=default;fontSize=13;fontFamily=Times New Roman;fontStyle=1;absoluteArcSize=1;container=0;" parent="BzCtqKmt7wued1GKm6yU-29" vertex="1">
          <mxGeometry y="5" width="120" height="60" as="geometry" />
        </mxCell>
        <mxCell id="LOqkfIYxf2SJnOIHWHjF-10" value="Open" style="text;html=1;align=center;verticalAlign=middle;whiteSpace=wrap;rounded=0;container=0;fontSize=11;fontFamily=Times New Roman;" parent="BzCtqKmt7wued1GKm6yU-29" vertex="1">
          <mxGeometry x="30" y="30" width="60" height="30" as="geometry" />
        </mxCell>
        <mxCell id="LOqkfIYxf2SJnOIHWHjF-6" value="" style="verticalLabelPosition=bottom;verticalAlign=top;html=1;shape=mxgraph.basic.rect;fillColor2=none;strokeWidth=1;size=20;indent=5;fillColor=#f8cecc;strokeColor=default;right=1;bottom=1;topLeftStyle=rounded;topRightStyle=rounded;container=0;fontFamily=Times New Roman;" parent="BzCtqKmt7wued1GKm6yU-29" vertex="1">
          <mxGeometry y="5" width="120" height="20" as="geometry" />
        </mxCell>
        <mxCell id="LOqkfIYxf2SJnOIHWHjF-7" value="Master" style="text;html=1;align=center;verticalAlign=middle;whiteSpace=wrap;rounded=0;fontFamily=Times New Roman;container=0;fontSize=11;" parent="BzCtqKmt7wued1GKm6yU-29" vertex="1">
          <mxGeometry x="30" width="60" height="30" as="geometry" />
        </mxCell>
        <mxCell id="BzCtqKmt7wued1GKm6yU-44" value="$$\cdots$$" style="text;html=1;align=center;verticalAlign=middle;whiteSpace=wrap;rounded=0;fontFamily=Times New Roman;" vertex="1" parent="1">
          <mxGeometry x="500" y="270" width="60" height="30" as="geometry" />
        </mxCell>
        <mxCell id="BzCtqKmt7wued1GKm6yU-48" value="Detector j" style="edgeStyle=orthogonalEdgeStyle;rounded=0;orthogonalLoop=1;jettySize=auto;html=1;exitX=0.5;exitY=1;exitDx=0;exitDy=0;shadow=0;strokeColor=default;align=center;verticalAlign=middle;fontFamily=Times New Roman;fontSize=11;fontColor=default;labelBackgroundColor=default;endArrow=block;endFill=1;flowAnimation=0;curved=0;" edge="1" parent="1" source="LOqkfIYxf2SJnOIHWHjF-4" target="BzCtqKmt7wued1GKm6yU-27">
          <mxGeometry relative="1" as="geometry" />
        </mxCell>
        <mxCell id="BzCtqKmt7wued1GKm6yU-49" value="Round 1" style="text;html=1;align=center;verticalAlign=middle;whiteSpace=wrap;rounded=0;fontFamily=Times New Roman;fontSize=15;fontStyle=3" vertex="1" parent="1">
          <mxGeometry x="220" y="204" width="60" height="30" as="geometry" />
        </mxCell>
        <mxCell id="BzCtqKmt7wued1GKm6yU-50" value="Round n" style="text;html=1;align=center;verticalAlign=middle;whiteSpace=wrap;rounded=0;fontFamily=Times New Roman;fontSize=15;fontStyle=3" vertex="1" parent="1">
          <mxGeometry x="220" y="332" width="60" height="30" as="geometry" />
        </mxCell>
        <mxCell id="BzCtqKmt7wued1GKm6yU-51" value="" style="endArrow=none;html=1;rounded=0;dashed=1;dashPattern=8 8;fillColor=#f5f5f5;strokeColor=#666666;fontFamily=Times New Roman;" edge="1" parent="1">
          <mxGeometry width="50" height="50" relative="1" as="geometry">
            <mxPoint x="224" y="336" as="sourcePoint" />
            <mxPoint x="840" y="336" as="targetPoint" />
          </mxGeometry>
        </mxCell>
        <mxCell id="BzCtqKmt7wued1GKm6yU-52" value="" style="endArrow=none;html=1;rounded=0;dashed=1;dashPattern=8 8;fillColor=#f5f5f5;strokeColor=#666666;fontFamily=Times New Roman;" edge="1" parent="1">
          <mxGeometry width="50" height="50" relative="1" as="geometry">
            <mxPoint x="224" y="208" as="sourcePoint" />
            <mxPoint x="838" y="208" as="targetPoint" />
          </mxGeometry>
        </mxCell>
        <mxCell id="BzCtqKmt7wued1GKm6yU-54" value="$$\cdots$$" style="text;html=1;align=center;verticalAlign=middle;whiteSpace=wrap;rounded=0;fontFamily=Times New Roman;" vertex="1" parent="1">
          <mxGeometry x="380" y="384" width="60" height="32" as="geometry" />
        </mxCell>
        <mxCell id="BzCtqKmt7wued1GKm6yU-55" value="" style="edgeStyle=orthogonalEdgeStyle;rounded=0;orthogonalLoop=1;jettySize=auto;html=1;shadow=0;strokeColor=default;align=center;verticalAlign=middle;fontFamily=Times New Roman;fontSize=11;fontColor=default;labelBackgroundColor=default;endArrow=block;endFill=1;flowAnimation=0;curved=0;" edge="1" parent="1" source="LOqkfIYxf2SJnOIHWHjF-4" target="BzCtqKmt7wued1GKm6yU-54">
          <mxGeometry relative="1" as="geometry" />
        </mxCell>
        <mxCell id="BzCtqKmt7wued1GKm6yU-3" value="" style="verticalLabelPosition=bottom;verticalAlign=top;html=1;shape=mxgraph.basic.rect;fillColor2=none;strokeWidth=1;size=20;indent=5;fillColor=#f8cecc;strokeColor=default;right=1;bottom=1;topLeftStyle=rounded;topRightStyle=rounded;container=0;fontFamily=Times New Roman;" vertex="1" parent="1">
          <mxGeometry x="476" y="384" width="120" height="20" as="geometry" />
        </mxCell>
        <mxCell id="BzCtqKmt7wued1GKm6yU-4" value="Master" style="text;html=1;align=center;verticalAlign=middle;whiteSpace=wrap;rounded=0;fontFamily=Times New Roman;container=0;fontSize=11;" vertex="1" parent="1">
          <mxGeometry x="506" y="379" width="60" height="30" as="geometry" />
        </mxCell>
        <mxCell id="BzCtqKmt7wued1GKm6yU-6" value="" style="verticalLabelPosition=bottom;verticalAlign=top;html=1;shape=mxgraph.basic.rect;fillColor2=none;strokeWidth=1;size=20;indent=5;fillColor=#dae8fc;strokeColor=default;align=center;fontFamily=Times New Roman;fontSize=12;fontColor=default;container=0;" vertex="1" parent="1">
          <mxGeometry x="476" y="404" width="30" height="10" as="geometry" />
        </mxCell>
        <mxCell id="BzCtqKmt7wued1GKm6yU-10" value="" style="verticalLabelPosition=bottom;verticalAlign=top;html=1;shape=mxgraph.basic.rect;fillColor2=none;strokeWidth=1;size=10;indent=0;bottomRightStyle=rounded;absoluteCornerSize=1;strokeColor=default;align=center;fontFamily=Times New Roman;fontSize=12;fontColor=default;fillColor=#dae8fc;container=0;right=1;bottom=1;" vertex="1" parent="1">
          <mxGeometry x="565" y="404" width="31" height="40" as="geometry" />
        </mxCell>
        <mxCell id="BzCtqKmt7wued1GKm6yU-58" value="" style="verticalLabelPosition=bottom;verticalAlign=top;html=1;shape=mxgraph.basic.rect;fillColor2=none;strokeWidth=1;size=20;indent=5;left=1;strokeColor=#FFFFFF;" vertex="1" parent="1">
          <mxGeometry x="564" y="405" width="31" height="18" as="geometry" />
        </mxCell>
        <mxCell id="BzCtqKmt7wued1GKm6yU-60" value="" style="verticalLabelPosition=bottom;verticalAlign=top;html=1;shape=mxgraph.basic.rect;fillColor2=none;strokeWidth=1;size=20;indent=5;top=1;strokeColor=#FFFFFF;" vertex="1" parent="1">
          <mxGeometry x="566" y="420" width="29" height="13" as="geometry" />
        </mxCell>
        <mxCell id="BzCtqKmt7wued1GKm6yU-61" value="" style="verticalLabelPosition=bottom;verticalAlign=top;html=1;shape=mxgraph.basic.rect;fillColor2=none;strokeWidth=1;size=20;indent=5;top=0;strokeColor=#000000;right=0;left=0;fillColor=none;" vertex="1" parent="1">
          <mxGeometry x="565" y="421" width="31" height="13" as="geometry" />
        </mxCell>
      </root>
    </mxGraphModel>
  </diagram>
</mxfile>
